<svg width="60" height="77" viewBox="0 0 60 77" fill="none" xmlns="http://www.w3.org/2000/svg">
<path d="M17.5485 21.0377V2.87354H24.3729L24.7834 21.0377H35.4049L45.4619 24.4243L52.3376 27.9134L56.6477 31.8644V53.5178L52.235 66.2943L48.951 73.5292H20.8838L17.5485 66.2943L13.3923 57.9818L10.5702 52.3376L6.8758 45.2566V41.8701H3.48926V34.9944L14.7777 35.097L16.2145 42.178L17.5485 21.0377Z" fill="white"/>
<rect x="14.0596" y="3.3866" width="3.48917" height="45.3592" fill="black"/>
<rect x="17.5488" width="6.97833" height="3.48917" fill="black"/>
<rect x="24.3213" y="3.3866" width="3.69441" height="31.5051" fill="black"/>
<rect x="28.0156" y="17.4459" width="6.97833" height="3.59179" fill="black"/>
<rect x="34.8916" y="20.8325" width="10.5701" height="3.59179" fill="black"/>
<rect x="34.8916" y="24.219" width="3.69441" height="10.6727" fill="black"/>
<rect x="45.4619" y="24.4242" width="6.87571" height="3.48917" fill="black"/>
<rect x="52.3369" y="27.9133" width="3.59179" height="3.59179" fill="black"/>
<rect x="55.8262" y="31.2999" width="3.59179" height="24.6294" fill="black"/>
<rect x="52.2354" y="55.8268" width="3.69441" height="10.4675" fill="black"/>
<rect x="17.5488" y="66.2942" width="3.48917" height="6.97833" fill="black"/>
<rect x="13.9561" y="59.1106" width="3.59179" height="7.18358" fill="black"/>
<rect x="10.5703" y="52.3375" width="3.38654" height="6.87571" fill="black"/>
<rect x="6.87598" y="45.2565" width="3.69441" height="7.08096" fill="black"/>
<rect x="3.48926" y="41.8701" width="3.38654" height="3.48917" fill="black"/>
<rect y="34.9943" width="3.48917" height="6.97833" fill="black"/>
<rect x="3.48926" y="34.9943" width="3.48917" height="6.97833" transform="rotate(-90 3.48926 34.9943)" fill="black"/>
<rect x="10.4668" y="38.2782" width="3.28392" height="3.59179" transform="rotate(-90 10.4668 38.2782)" fill="black"/>
<rect x="48.8477" y="66.2942" width="3.38654" height="10.4675" fill="black"/>
<rect x="17.5488" y="76.7617" width="3.48917" height="31.2999" transform="rotate(-90 17.5488 76.7617)" fill="black"/>
<rect x="45.4619" y="27.9133" width="3.59179" height="10.4675" fill="black"/>
</svg>
