<svg xmlns="http://www.w3.org/2000/svg" width="511.999" height="450" viewBox="0 0 511.999 450">
  <defs>
    <style>
      .a {
        fill: #fff;
      }
    </style>
  </defs>
  <g>
    <path class="a" d="M164.961,300h.023c.02,0,.039,0,.059,0H437a15,15,0,0,0,14.422-10.879l60-210A15,15,0,0,0,497,60H130.367L119.645,11.746A15,15,0,0,0,105,0H15a15,15,0,0,0,0,30H92.969c1.9,8.551,51.312,230.918,54.156,243.711A44.995,44.995,0,0,0,165,360H437a15,15,0,0,0,0-30H165a15,15,0,0,1-.039-30ZM477.113,90,425.684,270H177.031l-40-180Z"/>
    <path class="a" d="M150,405a45,45,0,1,0,45-45A45.052,45.052,0,0,0,150,405Zm45-15a15,15,0,1,1-15,15A15.018,15.018,0,0,1,195,390Z"/>
    <path class="a" d="M362,405a45,45,0,1,0,45-45A45.052,45.052,0,0,0,362,405Zm45-15a15,15,0,1,1-15,15A15.018,15.018,0,0,1,407,390Z"/>
  </g>
</svg>
