<svg xmlns="http://www.w3.org/2000/svg" width="512" height="512" viewBox="0 0 512 512">
  <defs>
    <style>
      .a {
        fill: #fff;
      }
    </style>
  </defs>
  <g>
    <polygon class="a" points="68.284 40 165 40 165 0 0 0 0 165 40 165 40 68.284 177 205.284 205.284 177 68.284 40"/>
    <polygon class="a" points="205.284 335 177 306.716 40 443.716 40 347 0 347 0 512 165 512 165 472 68.284 472 205.284 335"/>
    <polygon class="a" points="347 0 347 40 443.716 40 306.716 177 335 205.284 472 68.284 472 165 512 165 512 0 347 0"/>
    <polygon class="a" points="472 347 472 443.716 335 306.716 306.716 335 443.716 472 347 472 347 512 512 512 512 347 472 347"/>
  </g>
</svg>
